<svg width="898" height="852" viewBox="0 0 898 852" fill="none" xmlns="http://www.w3.org/2000/svg">
<g clip-path="url(#clip0_77_2)">
<path d="M789.71 588.29H793.04L788.04 586.73L751.39 558.64C793.04 513.39 821.36 468.13 839.69 432.24C824.7 405.71 788.04 352.66 728.06 304.28H726.39L718.06 296.48L834.68 145.12L753.04 213.78L756.37 207.54L739.71 224.7L709.72 249.67L706.39 257.47L688.06 276.2L681.4 273.08L709.72 249.67L723.05 207.54L676.4 268.4C614.75 231.36 544.44 208.88 471.48 202.86L461.48 154.49L434.84 0L403.19 181.01L408.19 202.86L399.86 204.42L403.19 181.01L399.86 165.41L394.86 190.38L399.86 204.42H391.53C325.63 213.85 262.93 237.34 208.26 273.08C209.93 269.96 208.26 271.52 206.59 271.52L208.26 268.4L203.26 266.84C201.59 265.28 201.59 266.84 199.93 268.4C198.27 269.96 198.26 269.96 198.26 266.84H196.59L191.59 268.4H186.59L183.26 269.96H181.59C181.59 266.84 178.26 265.28 176.59 262.16H174.92L171.59 268.4L168.26 271.52L0 190.37L119.96 296.48L134.95 293.36L149.94 299.6C150.39 300.69 150.95 301.73 151.61 302.72V304.28L124.95 301.16L143.28 318.32L144.95 319.88C86.64 369.81 49.99 421.31 44.99 436.91C64.98 480.6 96.64 522.73 134.96 558.62L133.29 560.18L109.97 591.39L23.34 686.58L58.33 664.73L56.66 667.85L68.32 658.49L158.29 603.87L156.62 594.51L164.95 586.71L174.95 594.51C237.16 644.15 311.6 678.47 391.54 694.38L396.54 711.54V722.46L398.21 720.9L399.88 722.46L403.21 724.02V720.9L404.88 719.34V720.9H406.55L414.88 716.22L418.21 717.78V716.22L421.54 713.1C421.54 717.78 426.54 714.66 428.2 713.1C431.53 713.1 433.2 711.54 431.53 709.98L453.19 851.98L476.51 697.5C534 693.83 589.58 676.65 638.12 647.57C664.9 632.22 690.01 614.45 713.09 594.52L898.02 674.1L789.73 588.28L789.71 588.29ZM149.95 577.36V572.68L151.62 575.8L149.95 577.36ZM151.62 290.24H146.62L151.62 288.68V290.24ZM166.61 290.24H163.28V288.68H166.61V290.24ZM169.94 288.68V290.24H168.27V288.68H169.94ZM413.18 700.64C411.51 705.32 409.85 702.2 409.85 700.64L408.18 695.96L416.51 697.52L413.18 700.64ZM429.84 702.2V699.08L431.51 702.2H429.84ZM728.07 580.48L766.39 585.16L819.7 631.97L721.4 586.72L728.06 580.48H728.07Z" fill="#E92B3E"/>
<path d="M166.6 628.86L174.93 594.53L158.27 603.89L166.6 628.86ZM111.62 299.6L124.95 301.16L119.95 298.04L111.62 299.6ZM394.85 188.81L391.52 202.85L394.85 190.37V188.81Z" fill="#E92B3E"/>
</g>
<defs>
<clipPath id="clip0_77_2">
<rect width="898" height="852" fill="white"/>
</clipPath>
</defs>
</svg>
