<svg width="312" height="343" viewBox="0 0 312 343" fill="none" xmlns="http://www.w3.org/2000/svg">
<g clip-path="url(#clip0_83_2)">
<path d="M169.5 192.78C179.36 187.75 187.46 180.17 192.82 170.93C196.7 165.17 199.51 158.84 201.15 152.2V149.08L202.82 145.96L201.15 125.67L199.48 113.19L197.81 111.63L172.82 3.95998L122.84 102.27C117.71 112.49 115.42 123.76 116.18 135.04L119.51 150.64L212.81 342.57L194.48 147.52L192.81 142.84L174.48 133.48L164.48 128.8L152.82 125.68L151.15 124.12L149.48 122.56H147.81L144.48 121H142.81V122.56L141.14 125.68V127.24L142.81 125.68C142.81 125.68 137.81 127.24 141.14 127.24H139.47L141.14 133.48L142.81 139.72L171.13 138.16L141.14 139.72L172.79 138.16V135.04L174.46 127.24L142.81 122.56C143.91 127.7 144.47 132.92 144.48 138.16C144.7 139.19 144.7 140.25 144.48 141.28H141.15H142.82V144.4L144.49 142.84L141.16 141.28L142.83 138.16V133.48L141.16 130.36V121L144.49 113.2V108.52L149.49 105.4L156.15 103.84L167.81 105.4C170.14 106.22 172.38 107.26 174.47 108.52L176.14 110.08L179.47 111.64L182.8 114.76C185.89 117.63 188.68 120.76 191.13 124.12C192.62 126 193.74 128.12 194.46 130.36L196.13 131.92V133.48L192.8 131.92L189.47 130.36L187.8 131.92H186.13V138.16L184.46 141.28L181.13 145.96C176.65 153.05 171.64 159.83 166.14 166.25H162.81L159.48 167.81H156.15L154.48 169.37C152.81 172.49 147.82 174.05 144.48 175.61L131.15 177.17H127.82V175.61H126.15L121.15 174.05L111.15 164.69C109.34 161.27 108.21 157.57 107.82 153.77V149.09L111.15 131.93L112.82 127.25C114.59 120.88 116.82 114.62 119.48 108.52C122.06 103.41 125.43 98.67 129.48 94.48L131.15 91.36L132.82 89.8L141.15 86.68C144.57 86.31 148.04 86.85 151.15 88.24L154.48 89.8C165.89 94.5 176.11 101.42 184.47 110.09L192.8 117.89L197.8 125.69L199.47 130.37V131.93H201.14V142.85C199.86 152.35 195.15 161.15 187.81 167.82L179.48 174.06C174.48 177.18 167.82 178.74 159.49 178.74C152.84 179.37 146.14 179.37 139.5 178.74C132.84 178.74 127.84 175.62 122.84 172.5L117.84 167.82L112.84 164.7C114.51 163.14 112.84 161.58 111.17 156.9L107.84 147.54C106.17 130.38 116.17 113.21 132.83 100.73L136.16 97.61L137.83 96.05L141.16 94.49L144.49 91.37L156.15 86.69L167.81 85.13H174.47L181.13 89.81L189.46 99.17L194.46 113.21C196.13 124.13 196.13 135.06 192.79 142.86C188.94 152.45 181.94 160.64 172.8 166.27C164.47 172.51 154.47 175.63 144.48 177.19H136.15L129.49 175.63L119.49 172.51L112.83 164.71L109.5 149.11C107.83 141.31 107.83 130.38 111.17 121.02L116.17 100.73C119.33 89.94 125.68 80.2 134.5 72.64L136.17 71.08L137.84 69.52L142.84 66.4L146.17 63.28L147.84 61.72L149.51 60.16C150.06 60.11 150.62 60.11 151.18 60.16L156.18 61.72H162.84L166.17 63.28L171.17 66.4L181.17 74.2C201.03 89.61 217.93 108.08 231.15 128.82L234.48 138.18L237.81 149.1V152.22H234.48V153.78L226.15 163.14L224.48 164.7H222.81L216.15 166.26L209.49 172.5C202.83 177.18 199.49 180.3 201.16 181.86C201.16 183.42 204.49 183.42 212.82 180.3L219.48 178.74H221.15C221.15 180.3 217.82 183.42 211.15 186.54C187.25 200.62 159.4 207.68 131.18 206.83C116.19 205.27 102.86 202.15 91.19 195.91C80.1 189.73 71.36 180.46 66.2 169.38L64.53 167.82L62.86 166.26V164.7L59.53 158.46C59.53 149.1 59.53 139.73 62.86 130.37L64.53 127.25V122.57L66.2 119.45L67.87 116.33H69.54V114.77L71.21 111.65L74.54 110.09L76.21 106.97C77.36 105.96 78.47 104.92 79.54 103.85L82.87 100.73L84.54 99.17L91.2 94.49L94.53 92.93L97.86 89.81L104.52 86.69L109.52 85.13L112.85 82.01L129.51 77.33H131.18C132.84 76.78 134.5 76.26 136.18 75.77H142.84L146.17 74.21H156.17L161.17 72.65H164.5L166.17 71.09L161.17 67.97L156.17 66.41L159.5 64.85L177.83 66.41C196.83 70.65 214.16 79.85 227.81 92.94L232.81 97.62L236.14 100.74L239.47 105.42L241.14 110.1C248.55 123.01 252.01 137.59 251.14 152.23C250.4 159.34 248.13 166.24 244.48 172.52V174.08L242.81 177.2L241.14 178.76C234.1 189.08 225.06 198.08 214.48 205.29C201.15 216.21 184.49 224.02 169.5 227.14H162.84C155.21 229 147.39 230.04 139.52 230.26H132.86C120.65 227.6 108.88 223.4 97.87 217.78L92.87 214.66C91.2 213.1 89.54 213.1 92.87 213.1C87.84 208.73 83.87 203.41 81.21 197.5V195.94L82.88 199.06C85.1 201.14 86.21 201.14 86.21 199.06L82.88 189.7L79.55 170.97V128.84C79.55 121.04 81.22 113.24 84.55 106.99C86.22 102.31 87.88 96.07 91.21 96.07L94.54 94.51L97.87 91.39V89.83H92.87L86.21 94.51H84.54L82.87 97.63L79.54 103.87C76.21 106.99 74.54 113.23 72.88 119.47L69.55 141.32L67.88 160.05L64.55 170.97L59.55 181.89C59.55 188.13 57.88 188.13 56.22 183.45C52.89 180.33 51.22 174.09 49.56 169.41L47.89 153.81L49.56 130.4L54.56 108.55L61.22 100.75L64.55 99.19L67.88 97.63L71.21 96.07C73.59 95.35 75.83 94.3 77.87 92.95L79.54 91.39H81.21L96.2 83.59C100.47 81.98 104.95 80.93 109.53 80.47H112.86L119.52 82.03L124.52 83.59V82.03L121.19 78.91L119.52 75.79L114.52 67.99C112.85 64.87 109.52 63.31 104.52 61.75C96.19 58.63 84.53 57.07 72.87 60.19C63.96 61.73 55.46 64.91 47.88 69.55L42.88 72.67L39.55 74.23L32.89 80.47C30.54 82.43 28.32 84.51 26.23 86.71L16.23 107C12.9 114.8 11.23 127.29 11.23 139.77C11.02 152.25 11.02 164.74 11.23 177.22L14.56 181.9L17.89 189.7L21.22 197.5L24.55 213.1L39.54 241.19C46.2 248.99 54.53 256.79 64.53 263.04C82.27 273.79 102.08 281.21 122.84 284.89L127.84 286.45H132.84C136.17 286.56 139.51 286.56 142.84 286.45C179.4 285.01 214.71 273.62 244.47 253.68C256.13 245.88 267.79 238.08 277.79 227.15C287.06 217.54 294.39 206.43 299.45 194.38L301.12 189.7L306.12 175.66L309.45 169.42L311.12 160.06V139.77L304.46 110.12L296.13 85.15L291.13 75.79C287.8 75.79 284.47 71.11 281.13 64.87L274.47 57.07L267.81 50.83C213.78 2.39997 131.73 -5.93001 67.88 30.54C47.89 43.02 29.56 58.63 17.9 78.91L14.57 85.15C12.86 88.25 11.19 91.37 9.57001 94.51L7.9 97.63L6.23002 103.87L4.56 110.11L2.89002 117.91V122.59L1.22001 128.83C-3.28999 160.65 6.34001 192.8 27.88 217.78L32.88 224.02L36.21 227.14L39.54 230.26L42.87 233.38L46.2 234.94L49.53 238.06L54.53 239.62C72.86 252.1 92.85 258.35 111.18 259.91C130.48 262.94 150.19 262.94 169.49 259.91C207.72 254.04 243.47 238.38 272.78 214.66L287.77 202.18C293.63 196.58 298.67 190.29 302.76 183.45C312.18 165.98 313.39 145.62 306.09 127.27L301.09 116.35C295.29 104.66 288.02 93.66 279.43 83.58C263.25 62.62 244.2 43.73 222.78 27.4L212.78 19.6C204.45 14.92 194.45 8.67998 181.13 5.55998L179.46 3.99999H177.79C174.02 2.59999 170.12 1.55999 166.13 0.879991H161.13C145.47 -0.300009 129.8 2.96998 116.15 10.24L99.49 19.6L89.49 28.96L82.83 35.2L77.83 41.44C56.73 66.44 44.5 96.99 42.84 128.82C42.2 142.42 43.32 156.04 46.17 169.39L52.83 189.68C56.16 197.48 61.16 203.72 67.82 209.97L72.82 216.21L77.82 219.33L87.82 225.57L97.82 230.25C100.04 232.33 100.597 233.89 99.49 234.93L106.15 238.05L117.81 242.73C124.47 243.04 131.14 243.04 137.8 242.73H156.13C187.59 236.79 215.86 220.79 236.1 197.48C258.35 171.66 267.47 138.05 261.09 105.41L249.43 74.2L246.1 66.4C241.6 58.93 235.99 52.1 229.44 46.11C222.78 38.31 212.78 32.07 201.12 27.38C185.52 20.61 168.09 18.43 151.14 21.14L144.48 22.7H139.48C136.12 23.66 132.79 24.7 129.48 25.82C117.76 30.82 107.05 37.68 97.83 46.11L91.17 50.79L87.84 53.91L84.51 57.03C65.04 76.05 51.75 99.86 46.19 125.69L44.52 141.29C43.72 158.6 47.74 175.81 56.18 191.22C64.54 205.78 77.28 217.72 92.83 225.55C102.83 230.23 111.16 233.35 121.15 234.91C139.48 239.59 159.47 239.59 177.8 236.47C194.46 233.35 209.45 227.11 224.45 216.18C253.67 193.97 268.24 158.99 262.77 124.11V120.99L261.1 117.87L259.43 111.63C255.21 99.55 248.41 88.4 239.44 78.86C230.22 68.26 219.58 58.82 207.79 50.77C198.55 43.97 188.48 38.21 177.8 33.61L171.14 32.05L167.81 30.49H162.81C152.81 27.37 142.82 27.37 131.16 28.93C117.91 30.78 105.34 35.6 94.51 42.97L91.18 46.09C85.18 50.85 79.61 56.07 74.52 61.69C50.6 91.06 39.85 128 44.53 164.68C46.78 179.2 52.47 193.06 61.19 205.25L82.85 225.54L86.18 227.1L89.51 230.22C96.81 233.94 104.67 236.57 112.83 238.02C122.83 241.14 134.49 241.14 144.48 241.14L171.14 234.9C202.09 224.48 228.46 204.72 246.11 178.72L247.78 175.6L249.45 172.48L251.12 169.36L252.79 164.68L254.46 161.56V158.44L256.13 149.08C259.76 128.95 254.99 108.27 242.8 91.34L239.47 86.66L224.48 71.06L221.15 67.94L216.15 64.82L212.82 61.7L209.49 60.14L206.16 58.58C199.5 53.9 191.17 50.78 182.84 49.22L164.51 46.1L166.18 47.66L169.51 50.78H159.51C156.18 50.78 161.18 52.34 162.84 53.9C167.84 53.9 174.5 53.9 179.5 57.02C187.65 59.25 195.48 62.39 202.82 66.38L206.15 67.94L209.48 69.5C211.84 71.45 214.06 73.53 216.14 75.74C222.8 80.42 229.47 88.22 234.47 96.03L232.8 92.91L229.47 91.35L221.14 86.67L212.81 78.87L207.81 75.75L204.48 72.63H202.81L201.14 71.07L197.81 69.51L191.15 66.39L177.82 61.71C169.49 60.15 159.49 58.59 151.16 60.15C141.16 61.71 132.83 64.83 126.17 69.51L122.84 72.63C116.18 77.31 111.18 83.55 109.51 89.79C106.18 96.03 102.85 103.83 102.85 110.08V131.93L109.51 149.09L116.17 156.89L121.17 158.45L114.51 145.97C112 140.49 110.32 134.72 109.51 128.81V111.65C109.51 103.85 112.84 96.05 116.17 88.24C111.17 99.16 111.17 110.09 112.84 119.45L114.51 130.37V122.57L116.18 113.21C117.85 105.41 119.51 97.61 126.18 91.36L122.85 99.16L121.18 106.96V130.37C122.85 138.17 126.18 145.97 131.18 150.66L136.18 153.78L139.51 155.34H146.17V158.46L144.5 170.94L141.17 181.86L137.84 183.42H131.18C128.34 183.25 125.54 182.73 122.85 181.86L117.85 178.74L116.18 177.18L112.85 175.62L111.18 174.06C107.61 171.17 104.27 168.04 101.18 164.7L99.51 161.58L96.18 155.34C93.22 148.37 91.53 140.99 91.18 133.49L89.51 130.37V125.69C90.04 115.03 92.29 104.51 96.17 94.48L102.83 80.44C106.16 72.64 112.83 67.96 116.16 64.84L117.83 61.72H112.83L117.83 57.04L122.83 53.92L129.49 49.24C123.43 50.77 117.77 53.42 112.83 57.04L107.83 60.16L104.5 63.28L99.5 67.96C89.14 80.03 82.77 94.68 81.17 110.09C80.06 115.75 79.5 121.5 79.5 127.25V135.05L81.17 138.17C83.45 151.72 89.16 164.56 97.83 175.62L107.83 184.98L109.5 186.54H111.17C114.85 188.94 118.76 191.02 122.83 192.78C129.17 195.38 135.93 196.96 142.82 197.46C152.06 197.05 161.12 194.93 169.48 191.22V192.78H169.5ZM56.21 231.79L39.55 217.75L36.22 214.63L32.89 209.95L29.56 206.83L26.23 202.15C17.9 191.23 12.9 177.18 11.24 163.14C7.91 142.85 9.57 119.45 17.9 99.16C26.23 78.87 41.22 61.71 57.89 47.67C122.6 0.48 215.35 8.68998 269.48 66.4L287.81 92.93C294.47 103.85 297.81 117.9 299.47 130.38C302.8 144.42 301.14 158.47 299.47 172.51L296.14 180.31L292.81 189.67L282.81 205.27L286.14 199.03L287.81 192.79L291.14 186.55V181.87L292.81 178.75L294.48 175.63V172.51L296.15 166.27L297.82 152.23L294.49 125.7C284.06 73.69 238.94 33.95 182.86 27.39C139.54 21.15 96.23 30.51 62.9 57.04L59.57 60.16L54.57 63.28L46.24 72.64L42.91 75.76L41.24 78.88L39.57 80.44L36.24 85.12L32.91 91.36L31.24 96.04L27.91 100.72L24.58 111.64L21.25 122.56L19.58 127.24V133.48C18.07 151.02 20.92 168.64 27.91 184.97L41.24 209.94L64.56 228.67C77.89 238.03 94.55 242.71 111.21 245.83C135.59 249.96 160.64 248.89 184.52 242.71C211.18 236.47 237.83 225.55 261.16 208.38L266.16 205.26L269.49 200.58L277.82 194.34C282.61 189.96 287.07 185.27 291.15 180.3L294.48 175.62C290.63 184.38 284.97 192.33 277.82 199.03L267.82 206.83L264.49 211.51L259.49 214.63C232.44 234.86 200.33 248.29 166.19 253.64L167.86 252.08C149.09 254.86 129.98 254.86 111.21 252.08C92.88 248.96 72.89 242.72 56.23 231.79H56.21ZM254.47 142.84C253.75 163.8 244.86 183.78 229.48 199.02C223.09 205.16 215.79 210.41 207.82 214.62L202.82 217.74L197.82 219.3L201.15 216.18L204.48 213.06L211.14 209.94L217.8 205.26L227.8 195.9L239.46 175.61C247.18 157.25 248.92 137.16 244.46 117.87L241.13 113.19C236.13 103.83 229.47 96.03 222.8 89.78C208.13 75.57 191.28 63.47 172.82 53.89L154.49 49.21H134.5C127.84 49.21 121.17 52.33 114.51 55.45L107.85 58.57L106.18 60.13L102.85 63.25L101.18 64.81L97.85 66.37L94.52 71.05L84.52 85.09C79.61 97.28 75.72 109.8 72.86 122.54C69.53 136.58 69.53 152.19 72.86 166.23C77.14 179.01 85.23 190.38 96.18 199C107.38 207.68 121.64 212.14 136.17 211.48L161.16 205.24L176.15 197.44L179.48 199L176.15 200.56L161.16 209.92L142.83 214.6C121.82 219.02 99.86 213.15 84.52 199C74.05 189.65 66.56 177.77 62.86 164.67V159.99L61.19 155.31V150.63C60.32 144.42 60.32 138.12 61.19 131.9V122.54L62.86 105.38C67.38 87.58 77.21 71.35 91.18 58.57L97.84 52.33L102.84 49.21L107.84 47.65C114.5 42.97 121.17 41.41 129.5 39.85L132.83 38.29L159.49 39.85L166.15 41.41L172.81 42.97C182.49 46.87 191.48 52.13 199.47 58.57C204.65 61.99 209.65 65.64 214.46 69.49C224.46 77.29 234.45 86.65 241.12 99.14C249.75 112.29 254.36 127.4 254.45 142.83L254.47 142.84ZM81.2 247.39L82.87 244.27H87.87L94.53 245.83C107.32 250.7 120.78 253.85 134.52 255.19H149.51L152.84 256.75L154.51 258.31L169.5 255.19L182.83 252.07L196.16 245.83L222.82 233.35L244.48 217.75L257.81 208.39L267.81 199.03L271.14 195.91L272.81 191.23L274.48 188.11V186.55L276.15 183.43L277.82 180.31C278.42 178.77 278.98 177.2 279.49 175.63V172.51L281.16 170.95V167.83L282.83 149.1L284.5 144.42V128.82C285.74 131.9 286.86 135.02 287.83 138.18V142.86L289.5 149.1C289.11 153.8 288.56 158.48 287.83 163.14C286.54 168.95 284.87 174.68 282.83 180.3C280.92 184.9 279.25 189.59 277.83 194.34L276.16 195.9L271.16 205.26L254.5 223.99C243.18 234.54 230.27 243.48 216.18 250.52C202.85 258.32 187.86 264.56 172.86 267.68C149.99 273.75 125.76 273.75 102.89 267.68L82.9 261.44L89.56 258.32H97.89L96.22 256.76L91.22 253.64L87.89 250.52L81.23 247.4L81.2 247.39ZM89.53 191.21L106.19 203.69L96.19 200.57C85.84 193.6 77.3 184.53 71.2 174.04C64.28 161.57 61.94 147.31 64.54 133.47V120.99C66.21 113.19 67.87 103.83 74.54 92.9C79.54 81.98 87.87 72.61 97.86 61.69C107.86 52.33 121.18 42.96 136.18 36.72C144.51 33.6 152.84 32.04 162.84 32.04C171.17 30.48 181.17 32.04 189.5 33.6L196.16 36.72C206.18 40.72 215.24 46.56 222.82 53.88C231.56 62.11 237.88 72.33 241.15 83.53C242.82 91.33 241.15 96.01 239.48 97.57L236.15 92.89L232.82 89.77L231.15 86.65L229.48 83.53L227.81 80.41C225.62 77.27 223.4 74.15 221.15 71.05L209.49 58.57L191.16 47.65C178.71 43.84 165.29 43.84 152.84 47.65C146.18 47.65 141.18 50.77 136.18 52.33C126.3 57.22 117.31 63.54 109.52 71.06C98.1 81.53 88.54 93.65 81.2 106.95H79.53L72.87 127.24C71.2 135.04 69.54 141.28 71.2 149.09C72.31 162.65 77.51 175.64 86.19 186.54L89.52 191.22L89.53 191.21ZM256.13 149.08V135.04L254.46 127.24V124.12L252.79 121V113.2L259.45 122.56V125.68L261.12 128.8V133.48L262.79 135.04V153.77C260.72 176.95 248.7 198.35 229.47 213.07C215.59 223.87 199.8 232.32 182.82 238.04C166.28 243.71 148.35 244.79 131.17 241.16L126.17 239.6L122.84 238.04L106.18 230.24L117.84 233.36L122.84 231.8H126.17L127.84 233.36L142.83 238.04C166.94 237.49 190.25 229.84 209.47 216.19L229.46 202.15C237.36 195.35 244.11 187.46 249.45 178.74L252.78 174.06V170.94L254.45 169.38C256.12 163.14 257.78 155.34 256.12 149.09L256.13 149.08ZM99.52 106.95L102.85 100.71L106.18 97.59L101.18 119.44L97.85 142.85C97.85 155.33 101.18 167.82 107.85 175.62L114.51 181.86L124.51 186.54L136.17 188.1C147.13 188.7 158.05 186.54 167.82 181.86C177.82 177.18 187.81 170.94 192.81 163.13C199.47 155.33 204.47 145.97 206.14 135.04L207.81 131.92C207.81 130.36 207.81 128.8 209.48 130.36C209.78 132.95 209.78 135.57 209.48 138.16V141.28C206.15 152.2 199.48 164.69 191.15 174.05C181.15 181.85 169.49 189.65 156.16 192.78L152.83 194.34C141.61 195.72 130.21 194.65 119.51 191.22C109.48 187.74 101.56 180.33 97.85 170.93L94.52 155.33L92.85 147.53V138.17L99.51 106.96L99.52 106.95ZM41.21 120.99C46.21 102.26 59.54 83.54 76.2 71.06C93.33 57.68 114.1 49.03 136.18 46.09L164.5 44.53C184.35 44.42 203.68 50.45 219.48 61.69L214.48 60.13L211.15 58.57L207.82 57.01H204.49C187.83 50.77 169.5 47.65 149.51 49.21C108.15 50.95 71.1 73.69 52.88 108.51L46.22 131.92L42.89 138.16L41.22 139.72V120.99H41.21ZM232.81 111.63L234.48 113.19L236.15 117.87V119.43L237.82 124.11V136.59L236.15 141.27V145.95L234.48 156.87L229.48 172.47L217.82 189.63C197.79 211.28 169.88 225.19 139.52 228.64L136.19 227.08C174.22 221.87 206.84 198.96 222.82 166.22L226.15 161.54V158.42L227.82 156.86V150.62L229.49 144.38C231.16 136.58 229.49 128.78 226.16 122.53V119.41C221.4 109.89 214.59 101.39 206.17 94.44L202.84 89.76L219.5 97.56L222.83 100.68L226.16 103.8L232.82 111.6L232.81 111.63ZM199.49 111.63L204.49 117.87L209.49 125.67V142.83L201.16 158.43C197.83 164.67 192.83 169.35 187.83 172.47L171.17 183.39C169.5 184.95 167.84 181.83 169.5 180.27L187.83 166.23C194.41 159.42 199.51 151.47 202.82 142.82V138.14C203.72 131.53 201.94 124.85 197.82 119.41V117.85C193.73 112.39 188.65 107.64 182.83 103.81L179.5 102.25L177.83 100.69L167.83 97.57C163.01 96.03 157.9 95.5 152.84 96.01H146.18C145.66 96.56 145.1 97.08 144.51 97.57L142.84 96.01C144.08 94.1 145.8 92.49 147.84 91.33H166.17L167.84 92.89L182.83 99.13L199.49 111.61V111.63ZM26.22 175.61C25.86 171.46 25.86 167.28 26.22 163.13L36.22 135.04L37.89 133.48C41.22 128.8 42.89 128.8 42.89 133.48L44.56 170.93V194.34L36.23 195.9L26.23 175.61H26.22ZM81.2 58.58L106.19 36.73L116.19 32.05L102.86 42.97C83.52 61.46 70.22 84.74 64.54 110.07L61.21 135.04V160.01L57.88 155.33V149.09L56.21 142.85L54.54 121V113.2L56.21 106.96C56.21 99.16 57.88 94.48 62.87 81.99L81.2 58.58ZM269.46 158.45L267.79 160.01C265.74 165.81 261.63 170.77 256.13 174.05C252.8 175.61 259.46 167.81 261.13 161.57L262.8 158.45L261.13 149.09V142.85L259.46 141.29C253.97 119.63 242.48 99.72 226.14 83.55C217.81 74.19 207.81 66.39 212.81 67.95L221.14 74.19L226.14 78.87L231.14 81.99C242.8 94.47 251.13 108.52 259.46 121L267.79 139.73L269.46 149.09V158.45ZM181.16 233.35C151.38 239.54 120.4 238.46 91.19 230.23L82.86 227.11L79.53 223.99H76.2L74.53 222.43L59.54 213.07L56.21 209.95L52.88 206.83L49.55 203.71L46.22 199.03L41.22 191.23L39.55 184.99L44.55 189.67L47.88 192.79L49.55 194.35L51.22 197.47L57.88 202.15C62.88 211.51 74.54 219.31 87.87 224L126.19 233.36H156.18C175 231.43 193.48 227.24 211.16 220.88C206.33 224.23 201.33 227.36 196.17 230.24L191.17 231.8L181.17 233.36L181.16 233.35ZM216.15 111.64L209.49 106.96L202.83 100.72C193.46 90.25 182.84 80.83 171.18 72.63L187.84 80.43L207.83 94.47L214.49 105.39L216.16 111.63L216.15 111.64ZM96.19 130.37L101.19 119.45V130.37L97.86 156.9C99.53 160.02 99.53 164.7 102.86 167.82C104.53 172.5 106.19 175.62 109.52 177.18L111.19 180.3V181.86H109.52L106.19 180.3L101.19 175.62L96.19 160.02V130.37Z" fill="#1DCCFE"/>
</g>
<defs>
<clipPath id="clip0_83_2">
<rect width="312" height="343" fill="white"/>
</clipPath>
</defs>
</svg>
