<svg width="131" height="82" viewBox="0 0 131 82" fill="none" xmlns="http://www.w3.org/2000/svg">
<path d="M6.47145 41.9534C6.47145 41.9534 16.5072 7.89109 49.76 6.17346C83.0127 4.45584 107.778 16.0036 117.858 26.2798C127.938 36.5559 129.655 46.5258 129.655 46.5258C129.655 46.5258 90.0502 75.1022 76.2447 76.5535C62.4391 78.0049 31.468 77.4822 18.9697 59.7178L6.47145 41.9534Z" fill="#E92B3E"/>
<path d="M73.7611 37.3865L73.5623 31.6225L73.1069 28.7085C74.2102 32.3991 74.6015 36.0257 73.6328 38.8115L72.6642 41.5973L71.8238 42.9582L70.3356 43.5424L67.4233 43.9984L65.4154 42.3811L64.8317 40.8921L64.248 39.403L63.7925 36.4889L64.1774 32.214C64.2202 31.7391 64.2202 31.7391 64.1774 32.214L63.2088 34.9999L63.4076 40.7638L65.3513 43.0936C66.6471 44.6468 68.007 45.4875 69.4952 44.9033C70.9193 45.0315 72.4076 44.4472 73.2479 43.0864L74.0241 42.438L75.121 38.2272C76.0897 35.4414 75.6984 31.8149 74.5951 28.1242L73.883 28.0601L73.9472 27.3476L73.2993 26.571L73.3635 25.8586L72.7156 25.082L70.7078 23.4647L67.8596 23.2082L65.5952 24.4408L64.1069 25.0251L63.2666 26.386L62.3621 28.4593C60.6172 31.8935 59.5203 36.1043 59.9116 39.7308C59.7191 41.8683 60.9507 44.1339 62.1824 46.3996L65.5501 48.8576C66.9101 49.6983 68.27 50.539 69.7582 49.9548L74.0946 49.6269L77.1994 47.0335C79.5921 44.3759 80.5608 41.59 81.5936 38.0917L81.6514 29.4778C81.908 26.6279 80.7405 23.6498 78.861 20.6075L76.3336 16.7886L71.5417 14.2024C68.0457 13.1693 64.3572 14.2738 61.3165 16.1548C58.988 18.0999 56.5952 20.7575 55.6266 23.5433L53.8176 27.69L52.7206 31.9007L51.8867 41.163L52.8617 46.2786L55.9728 51.5866L60.6364 55.5978L66.2685 56.8231C70.4766 57.9203 74.1651 56.8159 77.9178 54.999C81.6063 53.8946 84.0632 50.5245 85.8722 46.3778C87.7453 41.5187 87.6107 35.0422 85.2116 29.7984C82.7483 25.2671 78.7968 21.32 74.0691 18.0213C70.6372 16.2757 66.365 15.8911 62.7406 16.283C59.0521 17.3874 55.2994 19.2043 52.9067 21.8619L47.0884 30.6754C44.5045 36.3489 44.2684 42.8147 46.4316 48.6613C48.5949 54.5079 52.9818 59.2606 58.6349 61.8819C61.3548 63.5633 64.8508 64.5963 68.4752 64.2044C77.7317 65.0379 86.2057 58.6183 89.1758 49.5483C91.1131 43.9767 90.2022 38.1486 88.5152 32.9689C86.1161 27.7251 82.2929 22.353 77.6293 18.3418C73.6137 15.1072 70.1176 14.0742 67.9815 13.8818L66.4933 14.4661L65.0692 14.3379L61.3807 15.4423L56.7877 18.62L53.5546 22.6385C50.8411 28.8585 49.4876 35.9192 51.1105 41.8114L53.9008 50.6817L55.1966 52.2349L56.4924 53.7881L59.796 56.9586L63.94 58.7683C65.2999 59.609 67.5002 59.0888 68.9884 58.5046C70.4125 58.6328 71.2528 57.2719 72.7411 56.6877C75.0055 55.455 77.3341 53.5099 79.0148 50.7882L80.7596 47.354C84.3134 39.7732 83.7233 30.3827 77.9565 22.6808C76.0128 20.351 74.0691 18.0213 71.2851 17.0523L62.0286 16.2189L59.8283 16.739L58.2759 18.0358L52.0022 23.9352L50.1932 28.0819L49.4234 36.6317C50.3343 42.4598 52.7334 47.7036 56.6849 51.6507L61.4125 54.9494L67.8209 55.5264C69.957 55.7187 71.5094 54.422 73.126 52.4128C74.6784 51.116 75.5829 49.0427 75.7112 47.6177L77.6485 42.0461C77.9692 38.4837 79.0662 34.2729 77.9628 30.5822L77.5074 27.6682C76.3399 24.69 73.6842 22.2961 70.9644 20.6147L68.1803 19.6458L64.6201 19.3252L61.5795 21.2062L59.2509 23.1514L57.4419 27.298L56.9929 32.2854L58.0962 35.9761L60.4953 41.2199L61.6628 44.198L61.7911 42.7731L59.0007 33.9027L58.7377 28.8512L61.3229 24.0562L63.6515 22.1111L67.2758 21.7191L71.4198 23.5288L72.7156 25.082L73.3635 25.8586L73.2993 26.571C73.2352 27.2835 73.9472 27.3476 73.2993 26.571L70.6436 24.1772L67.8596 23.2082L68.5075 23.9848L73.1069 28.7085L74.2102 32.3991L72.7925 40.1723L70.7269 47.1689L69.1103 49.1782L67.5579 50.4749L64.6456 50.9309L61.2137 49.1854L57.2622 45.2383L54.799 40.707L54.3435 37.7929C53.8881 34.8789 54.273 30.604 56.0179 27.1698C56.9865 24.384 59.3151 22.4389 60.8675 21.1421C63.1319 19.9095 65.268 20.1018 67.4041 20.2942L69.4761 21.199L73.4918 24.4336L74.1397 25.2102C74.5716 25.7279 74.5716 25.7279 74.1397 25.2102L74.7875 25.9868L76.0192 28.2525L77.6421 34.1447C79.0725 42.1743 74.8067 49.6911 68.0134 53.3889L66.5251 53.9732L65.1011 53.845L61.6692 52.0995L60.3734 50.5463L59.7255 49.7697L59.0776 48.9931L56.2231 40.8352L55.8959 36.4962C55.5046 32.8697 56.6016 28.6589 58.4106 24.5122L62.3557 20.5579L64.6201 19.3252L67.4683 19.5817C70.3165 19.8381 73.0363 21.5196 75.692 23.9135L81.523 30.9028L84.2493 40.4856C84.7047 43.3997 84.4481 46.2496 82.7674 48.9713C81.829 51.1177 80.4235 53.0274 78.6535 54.5611C76.8836 56.0948 74.7938 57.2138 72.5367 57.8365C70.2796 58.4592 67.9121 58.5698 65.6069 58.1603C63.3017 57.7508 61.117 56.8315 59.2123 55.4695C56.4924 53.7881 54.5487 51.4583 53.3171 49.1927C48.9743 41.6191 50.5845 31.7084 57.6344 25.1606L62.2274 21.9828C63.7156 21.3986 65.9159 20.8784 67.9879 21.7833L73.4918 24.4336C76.8595 26.8916 79.3869 30.7105 80.4902 34.4011L80.9457 37.3152L81.337 40.9417C81.0804 43.7916 79.3997 46.5133 77.8473 47.8101L73.2543 50.9878L67.4938 51.1874L63.2857 50.0902C61.8616 49.962 60.5017 49.1213 59.9179 47.6322L58.1026 43.8775L57.7754 39.5385L58.2245 34.5511L59.4498 28.9153C60.4184 26.1295 61.4512 22.6312 63.7156 21.3986L66.7563 19.5176L70.3165 19.8381L73.0363 21.5196L74.98 23.8493L76.0833 27.54L75.8267 30.3899L76.2822 33.304L76.0897 35.4414L76.6734 36.9305L75.8972 37.5788L75.8331 38.2913L74.9927 39.6522L74.0882 41.7255L73.2479 43.0864L71.7597 43.6706L70.2714 44.2549L68.1353 44.0626L66.8395 42.5094L66.1916 41.7328L64.96 39.4671L64.6329 35.1281L66.506 30.2689L66.6343 28.844L67.4105 28.1956L68.1867 27.5472L68.9629 26.8989L69.6108 27.6755L70.9066 29.2286L71.7533 35.7692L71.625 37.1942L72.1446 39.3957L70.528 41.405L68.9757 42.7017L66.9037 41.7969L66.2558 41.0203L65.6079 40.2437L66.1275 42.4453L68.1995 43.3501L70.3997 42.8299L71.9521 41.5332L72.7925 40.1723L73.7611 37.3865ZM54.8053 48.6084C51.5659 44.7254 49.943 38.8332 50.4562 33.1334L50.8411 28.8585L55.107 21.3417L58.2118 18.7482L63.4527 16.3471L69.149 16.86L74.5887 20.2228L75.2366 20.9994L73.9408 19.4462L70.5089 17.7007L66.3008 16.6035L64.8767 16.4753L59.7 18.164L55.0428 22.0542C51.8098 26.0727 50.6487 30.9959 50.9758 35.3349C51.2388 40.3864 52.99 44.8537 55.5815 47.96L58.821 51.843L63.6128 54.4292L68.6613 54.1655C70.1495 53.5813 71.6377 52.997 72.5422 50.9237L74.3512 46.777L76.4168 39.7804L77.2508 30.5181L77.1867 31.2306L77.2572 38.4196L76.0961 43.3428L73.3184 50.2753L71.7019 52.2845C70.0212 55.0063 67.0447 56.1748 64.2607 55.2058L58.7568 52.5555L54.8053 48.6084ZM84.4481 46.2496L85.1538 38.4123L82.2351 30.9669L85.2179 37.6998L85.2243 45.6012C85.0319 47.7387 84.0632 50.5245 82.4467 52.5337C81.5422 54.6071 79.2136 56.5522 76.9492 57.7848L70.2842 60.0577C67.436 59.8013 63.8758 59.4807 61.1559 57.7993C57.724 56.0538 54.4204 52.8833 52.5409 49.841C50.7256 46.0863 49.6864 41.6832 50.0071 38.1208L50.9116 36.0474C50.0071 38.1207 49.7505 40.9707 50.9822 43.2364L50.918 43.9488C51.3093 47.5754 53.8367 51.3942 56.4283 54.5006C59.084 56.8945 63.2279 58.7041 66.7881 59.0247C73.1323 60.3142 79.1494 57.2647 82.5108 51.8213L84.384 46.9621L84.4481 46.2496ZM87.7453 41.5187L86.7703 36.4031L82.5558 27.4045C80.6763 24.3622 78.7327 22.0325 76.0128 20.351C73.3571 17.9571 70.5731 16.9882 67.0129 16.6676C64.1647 16.4112 61.9644 16.9313 59.7 18.164L61.9644 16.9313L62.7406 16.283L70.5731 16.9882C72.7092 17.1805 74.7812 18.0854 76.077 19.6386L80.7405 23.6498L84.5637 29.0218C86.4432 32.0641 87.5465 35.7547 88.0019 38.6688L87.7453 41.5187ZM73.4467 48.8504L72.0226 48.7221C69.7582 49.9548 67.6221 49.7624 65.6143 48.1451L63.6065 46.5278L62.3107 44.9746L61.7269 43.4856L61.079 42.709L61.1432 41.9965L60.6236 39.7949L60.2323 36.1684L61.1432 41.9965C62.439 43.5497 63.6706 45.8153 65.7426 46.7202L66.3905 47.4968C68.3983 49.1141 69.8224 49.2423 72.0868 48.0096L73.575 47.4254L75.1274 46.1286L75.8395 46.1928L75.0633 46.8411L73.4467 48.8504ZM57.7627 23.7356C58.7313 20.9498 60.412 18.2281 63.3885 17.0596C66.4291 15.1786 70.7014 15.5632 73.4212 17.2447C75.4932 18.1495 77.4369 20.4793 77.9565 22.6808L74.717 18.7978C72.7092 17.1805 71.3493 16.3398 69.2131 16.1475L64.1005 17.1237L59.4434 21.0139L55.9537 27.8823L54.536 35.6555L53.6956 37.0163L54.9209 31.3806L54.9851 30.6681L57.7627 23.7356ZM72.4781 51.6362L76.9428 49.8834L80.8879 45.9291L82.6969 41.7824L82.761 41.0699L82.5686 43.2074L80.8237 46.6415C79.8551 49.4274 77.5265 51.3725 75.3263 51.8926C72.2856 53.7736 68.7254 53.4531 65.2294 52.42L61.0854 50.6104L64.5815 51.6434L67.3655 52.6124L72.4781 51.6362Z" fill="#1DCCFE"/>
<path opacity="0.62" d="M2.38949 43.2717C8.156 30.8851 29.4334 3.71676 63.1259 3.36063L81.4323 4.21451C112.801 10.6226 116.078 23.0958 127.038 36.0949C128.817 39.2789 132.795 49.2705 125.855 41.7389C122.474 40.5755 124.735 40.5972 124.295 39.2357C99.1533 19.5405 58.1555 27.518 58.1555 27.518C33.2657 29.5419 20.6543 48.6494 29.7925 62.9884" fill="#8A2BE9"/>
<path d="M34.2181 33.9791L33.5083 33.8938L32.8838 33.0982L34.2181 33.9791L34.9279 34.0644L36.1767 35.6556L36.8866 35.7409L36.3475 34.2351L35.0133 33.3542L33.679 32.4733L32.3448 31.5924L30.3861 29.9159L30.4715 29.2056L25.9565 30.8244L31.2081 35.0583L37.9647 38.7526L41.882 42.1056L43.3016 42.2762L43.2163 42.9865L44.6359 43.1571L45.2603 43.9527L43.7285 38.7249L42.7358 35.003L43.0773 32.162L43.8725 31.5371L44.0433 30.1166L44.6677 30.9122L45.4629 30.2873L45.036 33.8385L43.1895 37.2191L42.2235 39.2645L42.1381 39.9748L41.343 40.5997L40.6331 40.5144L40.7185 39.8041L40.0087 39.7188L34.5864 36.9054L32.6277 35.229L31.3788 33.6378L30.7544 32.8422L28.6249 32.5862L29.7031 35.5979L30.9519 37.1891C30.8665 37.8993 31.491 38.6949 30.1567 37.814C29.4469 37.7287 29.3615 38.4389 31.4056 39.4051L33.3643 41.0816L34.6131 42.6728L37.367 43.7243L39.4111 44.6906L41.4551 45.6568L43.6699 45.2025L45.2603 43.9527L45.4311 42.5322L46.1409 42.6175L47.0215 41.2823L47.9874 39.2369L50.1754 33.0153L51.0292 25.9128L50.4048 25.1172L48.5315 22.7305L44.9825 22.3038L44.1873 22.9288L43.4775 22.8434L41.8871 24.0933L39.2454 28.0988L38.4502 28.7237L38.2794 30.1442L37.3988 31.4794L37.3135 32.1897L31.9765 28.666L30.0178 26.9896L29.3934 26.194L26.1004 23.6366L24.793 28.523L24.6222 29.9435L25.2466 30.7391L25.1613 31.4494L25.7857 32.2449L25.7003 32.9552L26.9492 34.5463L28.9932 35.5126L29.7031 35.5979L31.9179 35.1436L33.2521 36.0245L34.7571 35.4849L34.2181 33.9791ZM37.8793 39.4628L42.0528 40.685L42.7626 40.7704L41.9674 41.3953L41.1722 42.0202L40.5478 41.2246L39.1281 41.054L34.4156 38.3259L33.0814 37.445C32.5423 35.9392 33.1667 36.7348 35.1254 38.4113L37.8793 39.4628ZM45.6069 23.0994L47.1119 22.5598L48.4461 23.4407L45.6069 23.0994L42.4261 25.5991L41.6309 26.224L40.8357 26.849L39.9552 28.1841L38.9892 30.2296L38.7331 32.3603L38.8185 31.6501L38.1086 31.5647L39.16 28.8091L40.0405 27.4739L40.9211 26.1387L41.6309 26.224L41.7163 25.5138L42.5115 24.8889L43.3067 24.2639L43.3921 23.5537L44.1019 23.639L45.6069 23.0994ZM45.2654 25.9404L46.0606 25.3155L46.7704 25.4008L47.3948 26.1964L47.8485 28.4125L47.6777 29.833L47.7631 29.1227L47.1387 28.3271L46.5996 26.8213L45.8898 26.736L45.2654 25.9404ZM30.3007 30.6261L30.9251 31.4217L31.5496 32.2173L29.4201 31.9613L29.5909 30.5408L30.3007 30.6261ZM30.8398 32.132L28.1713 30.3702L26.837 29.4893L28.342 28.9497L27.5468 29.5746L30.2153 31.3364L32.174 33.0129L31.5496 32.2173L30.8398 32.132ZM37.2281 32.8999L37.8525 33.6955L37.1427 33.6102L36.5183 32.8146L35.8938 32.019L37.2281 32.8999Z" fill="#FF71F1"/>
<path d="M130.576 44.7249L124.893 48.0637L125.793 48.5248C125.112 48.7445 123.071 49.4036 124.893 48.0637L125.133 46.4826L121.951 48.2618L118.309 50.9415L115.808 52.5011L111.39 56.7286L108.208 58.5078L104.566 61.1875C103.886 61.4072 101.164 62.286 102.065 62.7471L99.3432 63.6259L95.4811 65.6249L89.7562 68.0783L82.953 70.2753C79.5513 71.3738 75.2495 72.0113 64.5217 72.8219L62.2609 72.8003C57.0589 72.9767 51.4173 71.7916 46.2361 69.7061L39.4745 67.3792L35.654 64.8543L34.0735 64.6129L32.2732 63.6908L30.253 62.088L29.3528 61.6269L28.2328 60.4851L23.2923 56.8184L20.1521 54.0738L18.132 52.4709L17.2318 52.0099L16.5515 52.2296L15.892 50.1874L14.772 49.0456L13.8718 48.5845C12.3121 46.0812 11.6318 46.3009 10.7316 45.8399L8.03113 44.4567L6.69129 42.6342L5.1108 42.3928L5.79112 42.1731L9.21357 38.8127L12.1755 36.3527L16.7388 31.8721L22.223 25.5906L37.4725 14.652L42.0149 12.4333L46.7772 10.8954L56.0611 9.40079L59.6826 8.98303L64.2042 9.02631L71.8869 9.55228L77.989 9.83691L79.5695 10.0783L84.311 10.8023L88.592 12.4268L95.5734 15.4344C104.575 20.0449 112.656 26.4562 119.376 33.307L119.815 34.6685L120.935 35.8103L122.495 38.3136L122.715 38.9943L123.835 40.1361L124.055 40.8169C125.615 43.3201 126.075 42.4197 125.855 41.739L125.876 39.477L123.678 32.6695C123.678 32.6695 123.018 30.6273 125.038 32.2301L125.938 32.6912L125.499 31.3297L123.719 28.1456L122.599 27.0038L121.259 25.1813L119.019 22.8977L116.779 20.6141L114.079 19.231L112.959 18.0892L111.839 16.9474L109.819 15.3445L107.799 13.7417L105.098 12.3586L104.198 11.8975L102.178 10.2947L95.8765 7.06735L93.176 5.68421L90.4755 4.30107L87.3145 3.81838L79.8726 1.71121L67.4485 0.46121L65.868 0.219865L63.6072 0.198224L52.0624 1.67121L48.441 2.08898L34.8344 6.48302L32.3329 8.04258L30.292 8.70169L28.4708 10.0415L18.9046 17.6413L15.4822 21.0017L13.2006 23.242L12.7401 24.1425L11.5993 25.2626L10.9189 25.4823L9.31762 27.5029C6.35567 29.963 6.57551 30.6437 6.33486 32.2249L5.63372 34.7066L4.03241 36.7272C4.93258 37.1882 4.47209 38.0887 4.0116 38.9891L3.55112 39.8896L6.27242 39.0107L7.41324 37.8906L8.55405 36.7704L8.09356 37.6709C7.63308 38.5713 4.45128 40.3506 6.49226 39.6915L6.03177 40.5919L4.89096 41.7121L3.99079 41.2511L3.77095 40.5703L3.28965 43.7327L4.40966 44.8745L4.84934 46.236L4.6295 45.5552C3.50949 44.4135 2.63014 41.6905 2.38949 43.2717L1.51014 40.5487C0.85062 38.5064 0.390132 39.4069 0.36932 41.6688L1.929 44.1721L2.80836 46.8951L3.92836 48.0369L5.48804 50.5402L7.04772 53.0435L9.50757 56.0078L22.9684 67.4474C29.0289 72.2559 36.2303 75.9443 43.4524 77.3707L53.375 80.1803L55.1753 81.1024L57.4362 81.124L62.6381 80.9476L77.8876 80.1803C77.8876 80.1803 83.3182 78.5574 86.7318 77.3241C90.4174 75.9927 96.0366 73.5676 96.0366 73.5676C107.382 69.1519 115.146 65.9626 123.835 55.7166C132.524 45.4706 125.311 51.6872 125.311 51.6872L127.813 50.1276L128.493 49.9079L129.414 48.107L129.194 47.4263L130.796 45.4057L129.895 44.9446L130.576 44.7249ZM103.015 17.5416L103.916 18.0026L106.616 19.3857L107.736 20.5275L108.636 20.9886L110.656 22.5914C113.357 23.9746 115.817 26.9389 118.057 29.2225L120.297 31.5061C120.59 32.4137 120.436 32.7139 119.836 32.4065L118.716 31.2647L117.157 28.7614L115.136 27.1586L112.896 24.875L109.296 23.0308L106.156 20.2862L104.135 18.6834L102.335 17.7613L103.015 17.5416ZM80.951 7.3769L79.3705 7.13556L73.2683 6.85093L70.7877 6.14854L69.8875 5.68749L74.4091 5.73078L79.1506 6.45481L80.951 7.3769ZM52.2823 2.35196L53.8628 2.59331L53.6429 1.91256C58.8449 1.73614 63.827 0.878971 68.5685 1.603L70.8293 1.62465L73.9903 2.10733L75.5708 2.34868L73.31 2.32704L71.7295 2.08569L62.0059 2.21883L59.0647 2.41689L55.4432 2.83465L51.8218 3.25241L50.9216 2.79137L52.2823 2.35196ZM29.5908 11.1833L30.7316 10.0632L35.4939 8.52527L34.3531 9.64542L31.6318 10.5242L30.491 11.6444L27.7697 12.5232L29.5908 11.1833ZM19.062 25.1079L22.945 20.847L25.9069 18.3869L26.5873 18.1672L25.4464 19.2874L23.6253 20.6273L20.2029 23.9877L18.1411 26.9088L19.062 25.1079ZM12.8975 31.6091L14.0383 30.4889L14.7186 30.2692L15.1583 31.6307L13.3372 32.9706L11.516 34.3104L12.8975 31.6091ZM11.1089 53.9872L9.74822 54.4266L8.40837 52.6041L6.84869 50.1008L9.76903 52.1647L10.889 53.3065L11.1089 53.9872ZM24.3499 64.7461L23.2299 63.6043L23.01 62.9235L21.2097 62.0014L17.3892 59.4765L16.2692 58.3347L20.9899 61.3207L24.13 64.0653L24.3499 64.7461ZM36.7532 68.258L33.1525 66.4138L30.0123 63.6692L31.8127 64.5913L32.9327 65.7331L36.7532 68.258ZM60.4397 74.1401L58.1789 74.1185L51.857 73.1531L50.9568 72.692L53.2176 72.7137C57.9591 73.4377 62.0202 74.3815 67.0024 73.5243L76.1497 72.4723L78.4105 72.494L62.7006 74.1618L60.4397 74.1401ZM85.1721 74.8209L79.0492 76.7982L75.2079 76.5352L79.5097 75.8977L84.4918 75.0406L86.5328 74.3815L85.1721 74.8209ZM125.531 52.3679L121.114 56.5954L116.791 59.4948L103.018 66.404L106.785 65.7331L109.287 64.1735L113.609 61.2741L118.048 54.7847L124.851 52.5877L125.531 52.3679Z" fill="url(#paint0_linear_87_48)"/>
<defs>
<linearGradient id="paint0_linear_87_48" x1="51.8426" y1="0.990466" x2="77.124" y2="79.2765" gradientUnits="userSpaceOnUse">
<stop stop-color="#311F7B"/>
<stop offset="1" stop-color="#4A33A7"/>
</linearGradient>
</defs>
</svg>
