<svg width="898" height="852" viewBox="0 0 898 852" fill="none" xmlns="http://www.w3.org/2000/svg">
<g clip-path="url(#clip0_83_6)">
<path d="M789.71 588.29H793.04L788.04 586.73L751.39 558.64C793.04 513.39 821.36 468.13 839.69 432.24C824.7 405.71 788.04 352.66 728.06 304.28H726.39L718.06 296.48L834.68 145.12L753.04 213.78L756.37 207.54L739.71 224.7L709.72 249.67L706.39 257.47L688.06 276.2L681.4 273.08L709.72 249.67L723.05 207.54L676.4 268.4C614.75 231.36 544.44 208.88 471.48 202.86L461.48 154.49L434.84 0L403.19 181.01L408.19 202.86L399.86 204.42L403.19 181.01L399.86 165.41L394.86 190.38L399.86 204.42H391.53C325.63 213.85 262.93 237.34 208.26 273.08C209.93 269.96 208.26 271.52 206.59 271.52L208.26 268.4L203.26 266.84C201.59 265.28 201.59 266.84 199.93 268.4C198.27 269.96 198.26 269.96 198.26 266.84H196.59L191.59 268.4H186.59L183.26 269.96H181.59C181.59 266.84 178.26 265.28 176.59 262.16H174.92L171.59 268.4L168.26 271.52L0 190.37L119.96 296.48L134.95 293.36L149.94 299.6C150.39 300.69 150.95 301.73 151.61 302.72V304.28L124.95 301.16L143.28 318.32L144.95 319.88C86.64 369.81 49.99 421.31 44.99 436.91C64.98 480.6 96.64 522.73 134.96 558.62L133.29 560.18L109.97 591.39L23.34 686.58L58.33 664.73L56.66 667.85L68.32 658.49L158.29 603.87L156.62 594.51L164.95 586.71L174.95 594.51C237.16 644.15 311.6 678.47 391.54 694.38L396.54 711.54V722.46L398.21 720.9L399.88 722.46L403.21 724.02V720.9L404.88 719.34V720.9H406.55L414.88 716.22L418.21 717.78V716.22L421.54 713.1C421.54 717.78 426.54 714.66 428.2 713.1C431.53 713.1 433.2 711.54 431.53 709.98L453.19 851.98L476.51 697.5C534 693.83 589.58 676.65 638.12 647.57C664.9 632.22 690.01 614.45 713.09 594.52L898.02 674.1L789.73 588.28L789.71 588.29ZM149.95 577.36V572.68L151.62 575.8L149.95 577.36ZM151.62 290.24H146.62L151.62 288.68V290.24ZM166.61 290.24H163.28V288.68H166.61V290.24ZM169.94 288.68V290.24H168.27V288.68H169.94ZM413.18 700.64C411.51 705.32 409.85 702.2 409.85 700.64L408.18 695.96L416.51 697.52L413.18 700.64ZM429.84 702.2V699.08L431.51 702.2H429.84ZM728.07 580.48L766.39 585.16L819.7 631.97L721.4 586.72L728.06 580.48H728.07Z" fill="#E92B3E"/>
<path d="M166.6 628.86L174.93 594.53L158.27 603.89L166.6 628.86ZM111.62 299.6L124.95 301.16L119.95 298.04L111.62 299.6ZM394.85 188.81L391.52 202.85L394.85 190.37V188.81Z" fill="#E92B3E"/>
<path d="M456.5 497.78C466.36 492.75 474.46 485.17 479.82 475.93C483.7 470.17 486.51 463.84 488.15 457.2V454.08L489.82 450.96L488.15 430.67L486.48 418.19L484.81 416.63L459.82 308.96L409.84 407.27C404.71 417.49 402.42 428.76 403.18 440.04L406.51 455.64L499.81 647.57L481.48 452.52L479.81 447.84L461.48 438.48L451.48 433.8L439.82 430.68L438.15 429.12L436.48 427.56H434.81L431.48 426H429.81V427.56L428.14 430.68V432.24L429.81 430.68C429.81 430.68 424.81 432.24 428.14 432.24H426.47L428.14 438.48L429.81 444.72L458.13 443.16L428.14 444.72L459.79 443.16V440.04L461.46 432.24L429.81 427.56C430.91 432.7 431.47 437.92 431.48 443.16C431.7 444.19 431.7 445.25 431.48 446.28H428.15H429.82V449.4L431.49 447.84L428.16 446.28L429.83 443.16V438.48L428.16 435.36V426L431.49 418.2V413.52L436.49 410.4L443.15 408.84L454.81 410.4C457.14 411.22 459.38 412.26 461.47 413.52L463.14 415.08L466.47 416.64L469.8 419.76C472.89 422.63 475.68 425.76 478.13 429.12C479.62 431 480.74 433.12 481.46 435.36L483.13 436.92V438.48L479.8 436.92L476.47 435.36L474.8 436.92H473.13V443.16L471.46 446.28L468.13 450.96C463.65 458.05 458.64 464.83 453.14 471.25H449.81L446.48 472.81H443.15L441.48 474.37C439.81 477.49 434.82 479.05 431.48 480.61L418.15 482.17H414.82V480.61H413.15L408.15 479.05L398.15 469.69C396.34 466.27 395.21 462.57 394.82 458.77V454.09L398.15 436.93L399.82 432.25C401.59 425.88 403.82 419.62 406.48 413.52C409.06 408.41 412.43 403.67 416.48 399.48L418.15 396.36L419.82 394.8L428.15 391.68C431.57 391.31 435.04 391.85 438.15 393.24L441.48 394.8C452.89 399.5 463.11 406.42 471.47 415.09L479.8 422.89L484.8 430.69L486.47 435.37V436.93H488.14V447.85C486.86 457.35 482.15 466.15 474.81 472.82L466.48 479.06C461.48 482.18 454.82 483.74 446.49 483.74C439.84 484.37 433.14 484.37 426.5 483.74C419.84 483.74 414.84 480.62 409.84 477.5L404.84 472.82L399.84 469.7C401.51 468.14 399.84 466.58 398.17 461.9L394.84 452.54C393.17 435.38 403.17 418.21 419.83 405.73L423.16 402.61L424.83 401.05L428.16 399.49L431.49 396.37L443.15 391.69L454.81 390.13H461.47L468.13 394.81L476.46 404.17L481.46 418.21C483.13 429.13 483.13 440.06 479.79 447.86C475.94 457.45 468.94 465.64 459.8 471.27C451.47 477.51 441.47 480.63 431.48 482.19H423.15L416.49 480.63L406.49 477.51L399.83 469.71L396.5 454.11C394.83 446.31 394.83 435.38 398.17 426.02L403.17 405.73C406.33 394.94 412.68 385.2 421.5 377.64L423.17 376.08L424.84 374.52L429.84 371.4L433.17 368.28L434.84 366.72L436.51 365.16C437.06 365.11 437.62 365.11 438.18 365.16L443.18 366.72H449.84L453.17 368.28L458.17 371.4L468.17 379.2C488.03 394.61 504.93 413.08 518.15 433.82L521.48 443.18L524.81 454.1V457.22H521.48V458.78L513.15 468.14L511.48 469.7H509.81L503.15 471.26L496.49 477.5C489.83 482.18 486.49 485.3 488.16 486.86C488.16 488.42 491.49 488.42 499.82 485.3L506.48 483.74H508.15C508.15 485.3 504.82 488.42 498.15 491.54C474.25 505.62 446.4 512.68 418.18 511.83C403.19 510.27 389.86 507.15 378.19 500.91C367.1 494.73 358.36 485.46 353.2 474.38L351.53 472.82L349.86 471.26V469.7L346.53 463.46C346.53 454.1 346.53 444.73 349.86 435.37L351.53 432.25V427.57L353.2 424.45L354.87 421.33H356.54V419.77L358.21 416.65L361.54 415.09L363.21 411.97C364.36 410.96 365.47 409.92 366.54 408.85L369.87 405.73L371.54 404.17L378.2 399.49L381.53 397.93L384.86 394.81L391.52 391.69L396.52 390.13L399.85 387.01L416.51 382.33H418.18C419.84 381.78 421.5 381.26 423.18 380.77H429.84L433.17 379.21H443.17L448.17 377.65H451.5L453.17 376.09L448.17 372.97L443.17 371.41L446.5 369.85L464.83 371.41C483.83 375.65 501.16 384.85 514.81 397.94L519.81 402.62L523.14 405.74L526.47 410.42L528.14 415.1C535.55 428.01 539.01 442.59 538.14 457.23C537.4 464.34 535.13 471.24 531.48 477.52V479.08L529.81 482.2L528.14 483.76C521.1 494.08 512.06 503.08 501.48 510.29C488.15 521.21 471.49 529.02 456.5 532.14H449.84C442.21 534 434.39 535.04 426.52 535.26H419.86C407.65 532.6 395.88 528.4 384.87 522.78L379.87 519.66C378.2 518.1 376.54 518.1 379.87 518.1C374.84 513.73 370.87 508.41 368.21 502.5V500.94L369.88 504.06C372.1 506.14 373.21 506.14 373.21 504.06L369.88 494.7L366.55 475.97V433.84C366.55 426.04 368.22 418.24 371.55 411.99C373.22 407.31 374.88 401.07 378.21 401.07L381.54 399.51L384.87 396.39V394.83H379.87L373.21 399.51H371.54L369.87 402.63L366.54 408.87C363.21 411.99 361.54 418.23 359.88 424.47L356.55 446.32L354.88 465.05L351.55 475.97L346.55 486.89C346.55 493.13 344.88 493.13 343.22 488.45C339.89 485.33 338.22 479.09 336.56 474.41L334.89 458.81L336.56 435.4L341.56 413.55L348.22 405.75L351.55 404.19L354.88 402.63L358.21 401.07C360.59 400.35 362.83 399.3 364.87 397.95L366.54 396.39H368.21L383.2 388.59C387.47 386.98 391.95 385.93 396.53 385.47H399.86L406.52 387.03L411.52 388.59V387.03L408.19 383.91L406.52 380.79L401.52 372.99C399.85 369.87 396.52 368.31 391.52 366.75C383.19 363.63 371.53 362.07 359.87 365.19C350.96 366.73 342.46 369.91 334.88 374.55L329.88 377.67L326.55 379.23L319.89 385.47C317.54 387.43 315.32 389.51 313.23 391.71L303.23 412C299.9 419.8 298.23 432.29 298.23 444.77C298.02 457.25 298.02 469.74 298.23 482.22L301.56 486.9L304.89 494.7L308.22 502.5L311.55 518.1L326.54 546.19C333.2 553.99 341.53 561.79 351.53 568.04C369.27 578.79 389.08 586.21 409.84 589.89L414.84 591.45H419.84C423.17 591.56 426.51 591.56 429.84 591.45C466.4 590.01 501.71 578.62 531.47 558.68C543.13 550.88 554.79 543.08 564.79 532.15C574.06 522.54 581.39 511.43 586.45 499.38L588.12 494.7L593.12 480.66L596.45 474.42L598.12 465.06V444.77L591.46 415.12L583.13 390.15L578.13 380.79C574.8 380.79 571.47 376.11 568.13 369.87L561.47 362.07L554.81 355.83C500.78 307.4 418.73 299.07 354.88 335.54C334.89 348.02 316.56 363.63 304.9 383.91L301.57 390.15C299.86 393.25 298.19 396.37 296.57 399.51L294.9 402.63L293.23 408.87L291.56 415.11L289.89 422.91V427.59L288.22 433.83C283.71 465.65 293.34 497.8 314.88 522.78L319.88 529.02L323.21 532.14L326.54 535.26L329.87 538.38L333.2 539.94L336.53 543.06L341.53 544.62C359.86 557.1 379.85 563.35 398.18 564.91C417.48 567.94 437.19 567.94 456.49 564.91C494.72 559.04 530.47 543.38 559.78 519.66L574.77 507.18C580.63 501.58 585.67 495.29 589.76 488.45C599.18 470.98 600.39 450.62 593.09 432.27L588.09 421.35C582.29 409.66 575.02 398.66 566.43 388.58C550.25 367.62 531.2 348.73 509.78 332.4L499.78 324.6C491.45 319.92 481.45 313.68 468.13 310.56L466.46 309H464.79C461.02 307.6 457.12 306.56 453.13 305.88H448.13C432.47 304.7 416.8 307.97 403.15 315.24L386.49 324.6L376.49 333.96L369.83 340.2L364.83 346.44C343.73 371.44 331.5 401.99 329.84 433.82C329.2 447.42 330.32 461.04 333.17 474.39L339.83 494.68C343.16 502.48 348.16 508.72 354.82 514.97L359.82 521.21L364.82 524.33L374.82 530.57L384.82 535.25C387.04 537.33 387.597 538.89 386.49 539.93L393.15 543.05L404.81 547.73C411.47 548.04 418.14 548.04 424.8 547.73H443.13C474.59 541.79 502.86 525.79 523.1 502.48C545.35 476.66 554.47 443.05 548.09 410.41L536.43 379.2L533.1 371.4C528.6 363.93 522.99 357.1 516.44 351.11C509.78 343.31 499.78 337.07 488.12 332.38C472.52 325.61 455.09 323.43 438.14 326.14L431.48 327.7H426.48C423.12 328.66 419.79 329.7 416.48 330.82C404.76 335.82 394.05 342.68 384.83 351.11L378.17 355.79L374.84 358.91L371.51 362.03C352.04 381.05 338.75 404.86 333.19 430.69L331.52 446.29C330.72 463.6 334.74 480.81 343.18 496.22C351.54 510.78 364.28 522.72 379.83 530.55C389.83 535.23 398.16 538.35 408.15 539.91C426.48 544.59 446.47 544.59 464.8 541.47C481.46 538.35 496.45 532.11 511.45 521.18C540.67 498.97 555.24 463.99 549.77 429.11V425.99L548.1 422.87L546.43 416.63C542.21 404.55 535.41 393.4 526.44 383.86C517.22 373.26 506.58 363.82 494.79 355.77C485.55 348.97 475.48 343.21 464.8 338.61L458.14 337.05L454.81 335.49H449.81C439.81 332.37 429.82 332.37 418.16 333.93C404.91 335.78 392.34 340.6 381.51 347.97L378.18 351.09C372.18 355.85 366.61 361.07 361.52 366.69C337.6 396.06 326.85 433 331.53 469.68C333.78 484.2 339.47 498.06 348.19 510.25L369.85 530.54L373.18 532.1L376.51 535.22C383.81 538.94 391.67 541.57 399.83 543.02C409.83 546.14 421.49 546.14 431.48 546.14L458.14 539.9C489.09 529.48 515.46 509.72 533.11 483.72L534.78 480.6L536.45 477.48L538.12 474.36L539.79 469.68L541.46 466.56V463.44L543.13 454.08C546.76 433.95 541.99 413.27 529.8 396.34L526.47 391.66L511.48 376.06L508.15 372.94L503.15 369.82L499.82 366.7L496.49 365.14L493.16 363.58C486.5 358.9 478.17 355.78 469.84 354.22L451.51 351.1L453.18 352.66L456.51 355.78H446.51C443.18 355.78 448.18 357.34 449.84 358.9C454.84 358.9 461.5 358.9 466.5 362.02C474.65 364.25 482.48 367.39 489.82 371.38L493.15 372.94L496.48 374.5C498.84 376.45 501.06 378.53 503.14 380.74C509.8 385.42 516.47 393.22 521.47 401.03L519.8 397.91L516.47 396.35L508.14 391.67L499.81 383.87L494.81 380.75L491.48 377.63H489.81L488.14 376.07L484.81 374.51L478.15 371.39L464.82 366.71C456.49 365.15 446.49 363.59 438.16 365.15C428.16 366.71 419.83 369.83 413.17 374.51L409.84 377.63C403.18 382.31 398.18 388.55 396.51 394.79C393.18 401.03 389.85 408.83 389.85 415.08V436.93L396.51 454.09L403.17 461.89L408.17 463.45L401.51 450.97C399 445.49 397.32 439.72 396.51 433.81V416.65C396.51 408.85 399.84 401.05 403.17 393.24C398.17 404.16 398.17 415.09 399.84 424.45L401.51 435.37V427.57L403.18 418.21C404.85 410.41 406.51 402.61 413.18 396.36L409.85 404.16L408.18 411.96V435.37C409.85 443.17 413.18 450.97 418.18 455.66L423.18 458.78L426.51 460.34H433.17V463.46L431.5 475.94L428.17 486.86L424.84 488.42H418.18C415.34 488.25 412.54 487.73 409.85 486.86L404.85 483.74L403.18 482.18L399.85 480.62L398.18 479.06C394.61 476.17 391.27 473.04 388.18 469.7L386.51 466.58L383.18 460.34C380.22 453.37 378.53 445.99 378.18 438.49L376.51 435.37V430.69C377.04 420.03 379.29 409.51 383.17 399.48L389.83 385.44C393.16 377.64 399.83 372.96 403.16 369.84L404.83 366.72H399.83L404.83 362.04L409.83 358.92L416.49 354.24C410.43 355.77 404.77 358.42 399.83 362.04L394.83 365.16L391.5 368.28L386.5 372.96C376.14 385.03 369.77 399.68 368.17 415.09C367.06 420.75 366.5 426.5 366.5 432.25V440.05L368.17 443.17C370.45 456.72 376.16 469.56 384.83 480.62L394.83 489.98L396.5 491.54H398.17C401.85 493.94 405.76 496.02 409.83 497.78C416.17 500.38 422.93 501.96 429.82 502.46C439.06 502.05 448.12 499.93 456.48 496.22V497.78H456.5ZM343.21 536.79L326.55 522.75L323.22 519.63L319.89 514.95L316.56 511.83L313.23 507.15C304.9 496.23 299.9 482.18 298.24 468.14C294.91 447.85 296.57 424.45 304.9 404.16C313.23 383.87 328.22 366.71 344.89 352.67C409.6 305.48 502.35 313.69 556.48 371.4L574.81 397.93C581.47 408.85 584.81 422.9 586.47 435.38C589.8 449.42 588.14 463.47 586.47 477.51L583.14 485.31L579.81 494.67L569.81 510.27L573.14 504.03L574.81 497.79L578.14 491.55V486.87L579.81 483.75L581.48 480.63V477.51L583.15 471.27L584.82 457.23L581.49 430.7C571.06 378.69 525.94 338.95 469.86 332.39C426.54 326.15 383.23 335.51 349.9 362.04L346.57 365.16L341.57 368.28L333.24 377.64L329.91 380.76L328.24 383.88L326.57 385.44L323.24 390.12L319.91 396.36L318.24 401.04L314.91 405.72L311.58 416.64L308.25 427.56L306.58 432.24V438.48C305.07 456.02 307.92 473.64 314.91 489.97L328.24 514.94L351.56 533.67C364.89 543.03 381.55 547.71 398.21 550.83C422.59 554.96 447.64 553.89 471.52 547.71C498.18 541.47 524.83 530.55 548.16 513.38L553.16 510.26L556.49 505.58L564.82 499.34C569.61 494.96 574.07 490.27 578.15 485.3L581.48 480.62C577.63 489.38 571.97 497.33 564.82 504.03L554.82 511.83L551.49 516.51L546.49 519.63C519.44 539.86 487.33 553.29 453.19 558.64L454.86 557.08C436.09 559.86 416.98 559.86 398.21 557.08C379.88 553.96 359.89 547.72 343.23 536.79H343.21ZM541.47 447.84C540.75 468.8 531.86 488.78 516.48 504.02C510.09 510.16 502.79 515.41 494.82 519.62L489.82 522.74L484.82 524.3L488.15 521.18L491.48 518.06L498.14 514.94L504.8 510.26L514.8 500.9L526.46 480.61C534.18 462.25 535.92 442.16 531.46 422.87L528.13 418.19C523.13 408.83 516.47 401.03 509.8 394.78C495.13 380.57 478.28 368.47 459.82 358.89L441.49 354.21H421.5C414.84 354.21 408.17 357.33 401.51 360.45L394.85 363.57L393.18 365.13L389.85 368.25L388.18 369.81L384.85 371.37L381.52 376.05L371.52 390.09C366.61 402.28 362.72 414.8 359.86 427.54C356.53 441.58 356.53 457.19 359.86 471.23C364.14 484.01 372.23 495.38 383.18 504C394.38 512.68 408.64 517.14 423.17 516.48L448.16 510.24L463.15 502.44L466.48 504L463.15 505.56L448.16 514.92L429.83 519.6C408.82 524.02 386.86 518.15 371.52 504C361.05 494.65 353.56 482.77 349.86 469.67V464.99L348.19 460.31V455.63C347.32 449.42 347.32 443.12 348.19 436.9V427.54L349.86 410.38C354.38 392.58 364.21 376.35 378.18 363.57L384.84 357.33L389.84 354.21L394.84 352.65C401.5 347.97 408.17 346.41 416.5 344.85L419.83 343.29L446.49 344.85L453.15 346.41L459.81 347.97C469.49 351.87 478.48 357.13 486.47 363.57C491.65 366.99 496.65 370.64 501.46 374.49C511.46 382.29 521.45 391.65 528.12 404.14C536.75 417.29 541.36 432.4 541.45 447.83L541.47 447.84ZM368.2 552.39L369.87 549.27H374.87L381.53 550.83C394.32 555.7 407.78 558.85 421.52 560.19H436.51L439.84 561.75L441.51 563.31L456.5 560.19L469.83 557.07L483.16 550.83L509.82 538.35L531.48 522.75L544.81 513.39L554.81 504.03L558.14 500.91L559.81 496.23L561.48 493.11V491.55L563.15 488.43L564.82 485.31C565.42 483.77 565.98 482.2 566.49 480.63V477.51L568.16 475.95V472.83L569.83 454.1L571.5 449.42V433.82C572.74 436.9 573.86 440.02 574.83 443.18V447.86L576.5 454.1C576.11 458.8 575.56 463.48 574.83 468.14C573.54 473.95 571.87 479.68 569.83 485.3C567.92 489.9 566.25 494.59 564.83 499.34L563.16 500.9L558.16 510.26L541.5 528.99C530.18 539.54 517.27 548.48 503.18 555.52C489.85 563.32 474.86 569.56 459.86 572.68C436.99 578.75 412.76 578.75 389.89 572.68L369.9 566.44L376.56 563.32H384.89L383.22 561.76L378.22 558.64L374.89 555.52L368.23 552.4L368.2 552.39ZM376.53 496.21L393.19 508.69L383.19 505.57C372.84 498.6 364.3 489.53 358.2 479.04C351.28 466.57 348.94 452.31 351.54 438.47V425.99C353.21 418.19 354.87 408.83 361.54 397.9C366.54 386.98 374.87 377.61 384.86 366.69C394.86 357.33 408.18 347.96 423.18 341.72C431.51 338.6 439.84 337.04 449.84 337.04C458.17 335.48 468.17 337.04 476.5 338.6L483.16 341.72C493.18 345.72 502.24 351.56 509.82 358.88C518.56 367.11 524.88 377.33 528.15 388.53C529.82 396.33 528.15 401.01 526.48 402.57L523.15 397.89L519.82 394.77L518.15 391.65L516.48 388.53L514.81 385.41C512.62 382.27 510.4 379.15 508.15 376.05L496.49 363.57L478.16 352.65C465.71 348.84 452.29 348.84 439.84 352.65C433.18 352.65 428.18 355.77 423.18 357.33C413.3 362.22 404.31 368.54 396.52 376.06C385.1 386.53 375.54 398.65 368.2 411.95H366.53L359.87 432.24C358.2 440.04 356.54 446.28 358.2 454.09C359.31 467.65 364.51 480.64 373.19 491.54L376.52 496.22L376.53 496.21ZM543.13 454.08V440.04L541.46 432.24V429.12L539.79 426V418.2L546.45 427.56V430.68L548.12 433.8V438.48L549.79 440.04V458.77C547.72 481.95 535.7 503.35 516.47 518.07C502.59 528.87 486.8 537.32 469.82 543.04C453.28 548.71 435.35 549.79 418.17 546.16L413.17 544.6L409.84 543.04L393.18 535.24L404.84 538.36L409.84 536.8H413.17L414.84 538.36L429.83 543.04C453.94 542.49 477.25 534.84 496.47 521.19L516.46 507.15C524.36 500.35 531.11 492.46 536.45 483.74L539.78 479.06V475.94L541.45 474.38C543.12 468.14 544.78 460.34 543.12 454.09L543.13 454.08ZM386.52 411.95L389.85 405.71L393.18 402.59L388.18 424.44L384.85 447.85C384.85 460.33 388.18 472.82 394.85 480.62L401.51 486.86L411.51 491.54L423.17 493.1C434.13 493.7 445.05 491.54 454.82 486.86C464.82 482.18 474.81 475.94 479.81 468.13C486.47 460.33 491.47 450.97 493.14 440.04L494.81 436.92C494.81 435.36 494.81 433.8 496.48 435.36C496.78 437.95 496.78 440.57 496.48 443.16V446.28C493.15 457.2 486.48 469.69 478.15 479.05C468.15 486.85 456.49 494.65 443.16 497.78L439.83 499.34C428.61 500.72 417.21 499.65 406.51 496.22C396.48 492.74 388.56 485.33 384.85 475.93L381.52 460.33L379.85 452.53V443.17L386.51 411.96L386.52 411.95ZM328.21 425.99C333.21 407.26 346.54 388.54 363.2 376.06C380.33 362.68 401.1 354.03 423.18 351.09L451.5 349.53C471.35 349.42 490.68 355.45 506.48 366.69L501.48 365.13L498.15 363.57L494.82 362.01H491.49C474.83 355.77 456.5 352.65 436.51 354.21C395.15 355.95 358.1 378.69 339.88 413.51L333.22 436.92L329.89 443.16L328.22 444.72V425.99H328.21ZM519.81 416.63L521.48 418.19L523.15 422.87V424.43L524.82 429.11V441.59L523.15 446.27V450.95L521.48 461.87L516.48 477.47L504.82 494.63C484.79 516.28 456.88 530.19 426.52 533.64L423.19 532.08C461.22 526.87 493.84 503.96 509.82 471.22L513.15 466.54V463.42L514.82 461.86V455.62L516.49 449.38C518.16 441.58 516.49 433.78 513.16 427.53V424.41C508.4 414.89 501.59 406.39 493.17 399.44L489.84 394.76L506.5 402.56L509.83 405.68L513.16 408.8L519.82 416.6L519.81 416.63ZM486.49 416.63L491.49 422.87L496.49 430.67V447.83L488.16 463.43C484.83 469.67 479.83 474.35 474.83 477.47L458.17 488.39C456.5 489.95 454.84 486.83 456.5 485.27L474.83 471.23C481.41 464.42 486.51 456.47 489.82 447.82V443.14C490.72 436.53 488.94 429.85 484.82 424.41V422.85C480.73 417.39 475.65 412.64 469.83 408.81L466.5 407.25L464.83 405.69L454.83 402.57C450.01 401.03 444.9 400.5 439.84 401.01H433.18C432.66 401.56 432.1 402.08 431.51 402.57L429.84 401.01C431.08 399.1 432.8 397.49 434.84 396.33H453.17L454.84 397.89L469.83 404.13L486.49 416.61V416.63ZM313.22 480.61C312.86 476.46 312.86 472.28 313.22 468.13L323.22 440.04L324.89 438.48C328.22 433.8 329.89 433.8 329.89 438.48L331.56 475.93V499.34L323.23 500.9L313.23 480.61H313.22ZM368.2 363.58L393.19 341.73L403.19 337.05L389.86 347.97C370.52 366.46 357.22 389.74 351.54 415.07L348.21 440.04V465.01L344.88 460.33V454.09L343.21 447.85L341.54 426V418.2L343.21 411.96C343.21 404.16 344.88 399.48 349.87 386.99L368.2 363.58ZM556.46 463.45L554.79 465.01C552.74 470.81 548.63 475.77 543.13 479.05C539.8 480.61 546.46 472.81 548.13 466.57L549.8 463.45L548.13 454.09V447.85L546.46 446.29C540.97 424.63 529.48 404.72 513.14 388.55C504.81 379.19 494.81 371.39 499.81 372.95L508.14 379.19L513.14 383.87L518.14 386.99C529.8 399.47 538.13 413.52 546.46 426L554.79 444.73L556.46 454.09V463.45ZM468.16 538.35C438.38 544.54 407.4 543.46 378.19 535.23L369.86 532.11L366.53 528.99H363.2L361.53 527.43L346.54 518.07L343.21 514.95L339.88 511.83L336.55 508.71L333.22 504.03L328.22 496.23L326.55 489.99L331.55 494.67L334.88 497.79L336.55 499.35L338.22 502.47L344.88 507.15C349.88 516.51 361.54 524.31 374.87 529L413.19 538.36H443.18C462 536.43 480.48 532.24 498.16 525.88C493.33 529.23 488.33 532.36 483.17 535.24L478.17 536.8L468.17 538.36L468.16 538.35ZM503.15 416.64L496.49 411.96L489.83 405.72C480.46 395.25 469.84 385.83 458.18 377.63L474.84 385.43L494.83 399.47L501.49 410.39L503.16 416.63L503.15 416.64ZM383.19 435.37L388.19 424.45V435.37L384.86 461.9C386.53 465.02 386.53 469.7 389.86 472.82C391.53 477.5 393.19 480.62 396.52 482.18L398.19 485.3V486.86H396.52L393.19 485.3L388.19 480.62L383.19 465.02V435.37Z" fill="#1DCCFE"/>
<path d="M366.53 326.13C366.53 323.01 364.86 323.01 363.2 326.13H361.53L359.86 318.33L358.19 315.21L351.53 304.29L348.2 302.73L346.53 299.61L359.86 262.16L351.53 271.52L356.53 259.04L338.2 284.01L334.87 227.83L314.88 296.49L308.22 299.61L298.22 310.53C294.89 313.65 294.89 318.33 291.56 319.89V321.45L289.89 324.57L288.22 329.25L286.55 330.81L284.88 332.37V333.93H283.21V335.49L281.54 337.05V338.61L278.21 337.05V340.17L276.54 337.05L274.87 335.49H273.2L271.53 333.93L268.2 330.81L264.87 327.69H263.2L256.54 321.45L249.88 316.77H248.21L244.88 315.21L239.88 312.09H234.88C230.46 311.45 225.97 311.45 221.55 312.09L214.89 305.85L218.22 313.65C213.22 313.65 209.89 316.77 204.89 319.89L201.56 324.57C198.16 327.46 195.83 331.28 194.9 335.49V337.05L196.57 349.53L199.9 360.45L201.57 363.57L203.24 366.69L204.91 368.25L209.91 374.49L213.24 380.73L214.91 382.29L218.24 388.53L221.57 393.21L223.24 394.77L221.57 396.33L224.9 399.45L231.56 405.69L234.89 411.93L238.22 416.61H239.89L236.56 425.97V430.65L234.89 436.89L238.22 438.45V436.89L239.89 435.33V432.21L241.56 433.77V449.37L243.23 450.93L244.9 447.81V444.69V452.49L238.24 450.93L236.57 446.25C236.57 444.69 238.24 440.01 234.9 441.57V440.01L233.23 441.57L231.56 449.37V458.73L239.89 460.29L246.55 463.41L248.22 464.97L251.55 466.53V464.97H253.22L251.55 463.41V461.85H253.22L259.88 514.9L271.54 455.6V450.92H273.21L274.88 452.48L283.21 461.84L286.54 463.4L289.87 466.52C293.2 468.08 291.54 464.96 293.2 464.96L291.53 463.4L289.86 461.84H291.53L296.53 463.4H294.86V468.08H293.19V469.64L299.85 474.32L303.18 477.44H306.51V475.88L309.84 477.44L311.51 480.56H313.18V479V477.44H314.85L316.52 472.76H318.19L316.52 471.2L318.19 469.64C319.86 471.2 319.86 468.08 319.86 468.08L321.53 466.52L323.2 464.96H321.53V463.4L324.86 457.16H326.53L328.2 458.72L329.87 455.6V450.92H331.54V446.24L333.21 438.44V436.88L336.54 429.08V425.96L338.21 424.4V422.84L341.54 413.48V410.36C343.21 408.8 344.87 407.24 343.21 405.68C344.88 407.24 344.88 404.12 344.88 404.12L349.88 390.08L353.21 382.28L354.88 374.48L356.55 365.12L358.22 360.44L359.89 352.64V349.52L361.56 347.96L363.23 340.16L366.56 335.48V326.12L366.53 326.13ZM318.21 424.44L321.54 419.76L318.21 427.56V430.68L314.88 441.6V432.24H313.21L318.21 424.44ZM294.89 386.99V385.43V390.11L293.22 388.55L294.89 386.99ZM296.55 344.86L298.22 343.3V344.86H296.55ZM304.88 452.53H306.55L304.88 455.65V454.09L303.21 452.53L304.88 450.97V452.53ZM304.88 461.89V465.01V463.45L301.55 461.89H304.88ZM304.88 461.89L303.21 460.33H304.88V461.89ZM308.21 461.89L309.88 463.45L308.21 465.01V461.89ZM301.55 341.74H299.88V340.18H301.55V341.74ZM299.88 450.97C296.55 449.41 294.88 447.85 294.88 444.73L298.21 446.29L299.88 450.97ZM301.55 466.57L299.88 465.01L304.88 466.57V465.01L306.55 466.57L304.88 468.13L301.55 466.57ZM309.88 441.61L311.55 443.17V454.09L309.88 452.53L308.21 450.97L309.88 449.41L308.21 446.29L309.88 440.05V441.61ZM308.21 319.9V323.02L306.54 326.14L303.21 330.82H301.54L298.21 329.26L299.88 327.7L301.55 326.14L303.22 321.46L306.55 319.9H308.22H308.21ZM293.22 323.02L296.55 318.34L303.21 308.98L304.88 305.86H306.55V307.42L301.55 313.66L299.88 318.34L293.22 326.14V323.02ZM288.22 429.13V427.57L294.88 435.37V436.93L289.88 432.25L288.21 430.69L284.88 429.13V426.01L286.55 427.57L288.22 429.13ZM216.58 355.79V354.23H218.25L219.92 358.91L221.59 362.03L216.59 358.91V355.79H216.58ZM218.25 337.06H221.58L226.58 338.62V337.06L231.58 349.54L233.25 352.66H234.92L233.25 354.22L234.92 360.46L231.59 355.78L229.92 354.22L228.25 355.78V351.1L226.58 346.42L224.91 344.86L223.24 346.42L221.57 347.98L219.9 343.3L218.23 341.74V337.06H218.25ZM273.23 352.66V354.22L271.56 357.34V362.02H269.89V360.46L273.22 354.22V352.66H273.23ZM251.57 347.98C251.57 347.46 251.57 346.94 251.57 346.42V347.98ZM248.24 344.86V346.42L246.57 344.86H248.24ZM268.23 365.15L266.56 363.59V362.03L268.23 363.59V365.15ZM251.57 343.3H248.24H249.91L246.58 340.18L243.25 337.06L239.92 335.5L236.59 330.82L241.59 332.38L244.92 333.94L249.92 340.18L251.59 341.74V343.3H251.57ZM286.56 435.37C288.23 435.37 288.23 438.49 291.56 438.49L289.89 440.05H288.22V438.49L286.55 435.37H286.56ZM284.89 341.74V340.18L286.56 338.62H288.23L286.56 343.3H284.89V341.74ZM281.56 424.44V426L279.89 424.44H281.56ZM276.56 343.3H278.23L276.56 344.86V346.42H274.89L276.56 343.3ZM264.9 341.74L266.57 338.62H269.9V344.86C268.23 346.42 266.57 346.42 264.9 343.3V341.74ZM266.57 347.98V349.54L264.9 351.1H263.23V352.66H261.56L263.23 355.78H264.9V358.9L266.57 362.02H264.9L263.23 358.9V357.34L261.56 354.22V352.66L259.89 354.22L258.22 351.1L259.89 346.42L263.22 344.86L266.55 347.98H266.57ZM259.91 332.38L263.24 333.94L261.57 335.5C261.57 335.5 258.24 335.5 261.57 337.06L258.24 338.62L253.24 335.5V333.94L248.24 330.82L246.57 327.7V326.14H243.24L241.57 324.58L239.9 323.02L244.9 324.58L253.23 327.7L259.89 332.38H259.91ZM224.92 315.22C229.43 314.93 233.95 315.46 238.25 316.78L246.58 319.9L248.25 321.46H246.58L236.58 318.34H226.58L223.25 315.22H224.92ZM206.59 343.31L208.26 349.55V351.11H206.59V349.55L204.92 341.75L206.59 335.51V333.95L208.26 335.51V337.07L206.59 338.63V343.31ZM206.59 327.71C204.46 330.02 202.77 332.66 201.59 335.51V347.99L203.26 349.55L204.93 357.35V360.47V358.91L199.93 352.67L198.26 349.55H199.93L198.26 337.07V335.51L199.93 333.95L201.6 329.27L206.6 323.03L211.6 318.35L219.93 316.79V319.91L213.27 323.03L206.61 327.71H206.59ZM213.25 333.95V332.39L223.25 327.71V329.27H219.92L216.59 332.39V333.95H213.26H213.25ZM223.25 387L219.92 383.88V376.08L221.59 377.64L224.92 385.44C224.92 385.44 226.59 388.56 223.25 387ZM243.24 432.25H244.91V433.81L243.24 432.25ZM248.24 454.1L246.57 452.54H248.24V454.1ZM251.57 454.1L249.9 452.54H251.57V454.1ZM266.57 452.54V450.98H269.9L271.57 452.54H266.57ZM276.57 446.3V444.74L274.9 443.18H278.23L281.56 444.74L288.22 447.86L289.89 449.42H288.22L276.56 446.3H276.57ZM291.56 458.78L289.89 457.22L286.56 455.66L281.56 452.54H284.89L286.56 454.1L294.89 455.66L296.56 457.22L291.56 458.78ZM323.21 454.1C322.22 456.75 321.11 459.35 319.88 461.9L318.21 460.34V457.22L321.54 449.42H323.21V454.1ZM329.87 436.94C328.2 438.5 326.54 440.06 328.2 443.18H326.53V440.06L328.2 436.94L329.87 435.38V436.94ZM329.87 422.9L326.54 426.02V421.34H328.21L329.88 422.9H329.87ZM333.2 385.45V391.69L331.53 396.37L329.86 404.17H328.19V402.61L329.86 396.37C329.86 393.25 329.86 390.13 328.19 393.25V387.01L329.86 382.33H333.19V385.45H333.2ZM338.2 301.19H339.87V304.31H338.2V301.19ZM334.87 312.11H336.54L334.87 313.67V312.11ZM334.87 315.23L336.54 313.67L339.87 316.79L338.2 319.91V318.35L334.87 316.79V315.23ZM334.87 326.15V321.47L336.54 323.03V326.15C336.54 329.27 334.87 327.71 334.87 326.15ZM341.53 352.68L338.2 360.48C338.2 362.04 338.2 363.6 336.53 360.48V355.8L338.2 354.24L341.53 352.68ZM343.2 329.27V330.83L341.53 332.39V330.83L339.86 326.15V316.79V318.35L343.19 323.03V329.27H343.2ZM341.53 313.67V312.11H344.86L346.53 315.23V316.79L348.2 318.35V326.15L346.53 324.59V323.03L341.53 313.67ZM354.86 362.04L353.19 363.6L351.52 368.28L349.85 372.96V376.08C348.79 378.18 347.68 380.27 346.52 382.32V372.96L353.18 360.48L354.85 358.92V362.04H354.86ZM354.86 337.07L353.19 341.75C353.19 343.31 353.19 344.87 351.52 343.31V341.75L353.19 333.95L354.86 330.83L356.53 332.39L354.86 337.07Z" fill="white"/>
</g>
<defs>
<clipPath id="clip0_83_6">
<rect width="898" height="852" fill="white"/>
</clipPath>
</defs>
</svg>
